#N canvas 755 181 842 549 12;
#X msg 134 39 devices;
#X obj 83 112 print;
#X msg 208 40 open 32;
#X obj 182 82 comport 32 57600;
#X msg 279 41 close;
#X msg 219 166 zlclear;
#X obj 219 142 sel 255;
#X obj 187 117 t a a;
#X floatatom 124 343 5 0 0 0 - - - 0;
#X floatatom 165 341 5 0 0 0 - - - 0;
#X floatatom 208 341 5 0 0 0 - - - 0;
#X floatatom 249 339 5 0 0 0 - - - 0;
#X floatatom 292 338 5 0 0 0 - - - 0;
#X floatatom 333 336 5 0 0 0 - - - 0;
#X obj 124 371 / 10;
#X floatatom 123 398 5 0 0 3 X - - 0;
#X obj 167 370 / 10;
#X floatatom 166 397 5 0 0 3 Y - - 0;
#X obj 214 369 * 255;
#X obj 218 394 +;
#X obj 218 426 / 100;
#X floatatom 218 455 7 0 0 3 Heading - - 0;
#X obj 297 370 - 90;
#X floatatom 296 397 5 0 0 3 Roll - - 0;
#X obj 338 368 - 90;
#X floatatom 337 395 5 0 0 3 Pitch - - 0;
#X obj 187 195 zl group 8;
#X obj 403 124 netsend -u -b;
#X msg 403 96 connect localhost 9001;
#X obj 187 225 route 255;
#X obj 190 258 route 1 2;
#X obj 112 293 unpack f f f f f f, f 34;
#X floatatom 525 341 5 0 0 0 - - - 0;
#X floatatom 566 339 5 0 0 0 - - - 0;
#X floatatom 609 339 5 0 0 0 - - - 0;
#X floatatom 650 337 5 0 0 0 - - - 0;
#X floatatom 693 336 5 0 0 0 - - - 0;
#X floatatom 734 334 5 0 0 0 - - - 0;
#X obj 525 369 / 10;
#X floatatom 524 396 5 0 0 3 X - - 0;
#X obj 568 368 / 10;
#X floatatom 567 395 5 0 0 3 Y - - 0;
#X obj 615 367 * 255;
#X obj 619 392 +;
#X obj 619 424 / 100;
#X floatatom 619 453 7 0 0 3 Heading - - 0;
#X obj 698 368 - 90;
#X floatatom 697 395 5 0 0 3 Roll - - 0;
#X obj 739 366 - 90;
#X floatatom 738 393 5 0 0 3 Pitch - - 0;
#X obj 513 291 unpack f f f f f f, f 34;
#X text 14 292 Headphones 1;
#X text 413 293 Headphones 2;
#X text 401 18 Data structure;
#X text 402 40 255 id X Y Heading_MSB Heading_LSB Roll Pitch;
#X connect 0 0 3 0;
#X connect 2 0 3 0;
#X connect 3 0 7 0;
#X connect 3 0 27 0;
#X connect 3 0 1 0;
#X connect 4 0 3 0;
#X connect 5 0 26 0;
#X connect 6 0 5 0;
#X connect 7 0 26 0;
#X connect 7 1 6 0;
#X connect 8 0 14 0;
#X connect 9 0 16 0;
#X connect 10 0 18 0;
#X connect 11 0 19 1;
#X connect 12 0 22 0;
#X connect 13 0 24 0;
#X connect 14 0 15 0;
#X connect 16 0 17 0;
#X connect 18 0 19 0;
#X connect 19 0 20 0;
#X connect 20 0 21 0;
#X connect 22 0 23 0;
#X connect 24 0 25 0;
#X connect 26 0 29 0;
#X connect 28 0 27 0;
#X connect 29 0 30 0;
#X connect 30 0 31 0;
#X connect 30 1 50 0;
#X connect 31 0 8 0;
#X connect 31 1 9 0;
#X connect 31 2 10 0;
#X connect 31 3 11 0;
#X connect 31 4 12 0;
#X connect 31 5 13 0;
#X connect 32 0 38 0;
#X connect 33 0 40 0;
#X connect 34 0 42 0;
#X connect 35 0 43 1;
#X connect 36 0 46 0;
#X connect 37 0 48 0;
#X connect 38 0 39 0;
#X connect 40 0 41 0;
#X connect 42 0 43 0;
#X connect 43 0 44 0;
#X connect 44 0 45 0;
#X connect 46 0 47 0;
#X connect 48 0 49 0;
#X connect 50 0 32 0;
#X connect 50 1 33 0;
#X connect 50 2 34 0;
#X connect 50 3 35 0;
#X connect 50 4 36 0;
#X connect 50 5 37 0;
