#N canvas 1054 440 753 512 12;
#X msg 134 39 devices;
#X obj 87 142 print;
#X msg 208 40 open 32;
#X obj 182 82 comport 32 57600;
#X msg 279 41 close;
#X msg 219 166 zlclear;
#X obj 219 142 sel 255;
#X obj 187 117 t a a;
#X obj 187 195 zl group 7;
#X obj 187 241 unpack f f f f f f f, f 34;
#X floatatom 206 277 5 0 0 0 - - - 0;
#X floatatom 247 275 5 0 0 0 - - - 0;
#X floatatom 290 275 5 0 0 0 - - - 0;
#X floatatom 331 273 5 0 0 0 - - - 0;
#X floatatom 374 272 5 0 0 0 - - - 0;
#X floatatom 415 270 5 0 0 0 - - - 0;
#X obj 206 305 / 10;
#X floatatom 205 332 5 0 0 3 X - - 0;
#X obj 249 304 / 10;
#X floatatom 248 331 5 0 0 3 Y - - 0;
#X obj 296 303 * 255;
#X obj 300 328 +;
#X obj 300 360 / 100;
#X floatatom 300 389 7 0 0 3 Heading - - 0;
#X obj 379 304 - 90;
#X floatatom 378 331 5 0 0 3 Roll - - 0;
#X obj 420 302 - 90;
#X floatatom 419 329 5 0 0 3 Pitch - - 0;
#X connect 0 0 3 0;
#X connect 2 0 3 0;
#X connect 3 0 7 0;
#X connect 4 0 3 0;
#X connect 5 0 8 0;
#X connect 6 0 5 0;
#X connect 7 0 8 0;
#X connect 7 1 6 0;
#X connect 8 0 1 0;
#X connect 8 0 9 0;
#X connect 9 1 10 0;
#X connect 9 2 11 0;
#X connect 9 3 12 0;
#X connect 9 4 13 0;
#X connect 9 5 14 0;
#X connect 9 6 15 0;
#X connect 10 0 16 0;
#X connect 11 0 18 0;
#X connect 12 0 20 0;
#X connect 13 0 21 1;
#X connect 14 0 24 0;
#X connect 15 0 26 0;
#X connect 16 0 17 0;
#X connect 18 0 19 0;
#X connect 20 0 21 0;
#X connect 21 0 22 0;
#X connect 22 0 23 0;
#X connect 24 0 25 0;
#X connect 26 0 27 0;
